<svg width="28" height="28" viewBox="0 0 28 28" fill="none" xmlns="http://www.w3.org/2000/svg">
<path d="M14 2.33334C13.034 2.33334 12.25 3.11734 12.25 4.08334V4.89454C9.23207 5.67245 7.00002 8.40561 7.00002 11.6667V18.6667L5.209 20.0156H5.20673C5.04118 20.121 4.9049 20.2665 4.8105 20.4386C4.71611 20.6107 4.66664 20.8038 4.66669 21C4.66669 21.3094 4.7896 21.6062 5.0084 21.825C5.22719 22.0438 5.52393 22.1667 5.83335 22.1667H14H22.1667C22.4761 22.1667 22.7729 22.0438 22.9916 21.825C23.2104 21.6062 23.3334 21.3094 23.3334 21C23.3334 20.8038 23.2839 20.6107 23.1895 20.4386C23.0951 20.2665 22.9589 20.121 22.7933 20.0156L21 18.6667V11.6667C21 8.40561 18.768 5.67245 15.75 4.89454V4.08334C15.75 3.11734 14.966 2.33334 14 2.33334ZM11.6667 23.3333C11.6667 24.6167 12.7167 25.6667 14 25.6667C15.2834 25.6667 16.3334 24.6167 16.3334 23.3333H11.6667Z" fill="#191919"/>
</svg>
