<svg width="28" height="28" viewBox="0 0 28 28" fill="none" xmlns="http://www.w3.org/2000/svg">
<path d="M8.16669 2.33334C7.52269 2.33334 7.00002 2.85601 7.00002 3.50001C7.00002 4.14401 7.52269 4.66668 8.16669 4.66668H23.3334V15.1667C23.3334 15.8107 23.856 16.3333 24.5 16.3333C25.144 16.3333 25.6667 15.8107 25.6667 15.1667V4.66668C25.6667 3.37751 24.6225 2.33334 23.3334 2.33334H8.16669ZM4.66669 7.00001C3.38335 7.00001 2.34475 8.05001 2.34475 9.33334L2.33563 24.0147C2.33447 25.0542 3.59217 25.5768 4.32717 24.8418L7.00002 22.1667H18.6667C19.95 22.1667 21 21.1167 21 19.8333V9.33334C21 8.05001 19.95 7.00001 18.6667 7.00001H4.66669Z" fill="#191919"/>
</svg>
