<svg width="28" height="28" viewBox="0 0 28 28" fill="none" xmlns="http://www.w3.org/2000/svg">
<path d="M14 2.33334C13.8457 2.33336 13.693 2.36399 13.5506 2.42344C13.4082 2.48289 13.2791 2.56999 13.1706 2.6797L1.40367 12.9473C1.33018 13.0015 1.27045 13.0722 1.22929 13.1538C1.18813 13.2353 1.16668 13.3253 1.16669 13.4167C1.16669 13.5714 1.22815 13.7198 1.33754 13.8292C1.44694 13.9386 1.59531 14 1.75002 14H4.66669V23.3333C4.66669 23.9773 5.18935 24.5 5.83335 24.5H10.5C11.144 24.5 11.6667 23.9773 11.6667 23.3333V16.3333H16.3334V23.3333C16.3334 23.9773 16.856 24.5 17.5 24.5H22.1667C22.8107 24.5 23.3334 23.9773 23.3334 23.3333V14H26.25C26.4047 14 26.5531 13.9386 26.6625 13.8292C26.7719 13.7198 26.8334 13.5714 26.8334 13.4167C26.8334 13.3253 26.8119 13.2353 26.7708 13.1538C26.7296 13.0722 26.6699 13.0015 26.5964 12.9473L14.8363 2.68653C14.834 2.68425 14.8317 2.68197 14.8294 2.6797C14.721 2.56999 14.5918 2.48289 14.4494 2.42344C14.3071 2.36399 14.1543 2.33336 14 2.33334Z" fill="#0038FF"/>
</svg>
