<svg width="18" height="17" viewBox="0 0 18 17" fill="none" xmlns="http://www.w3.org/2000/svg">
<path d="M15.6658 0.5H2.34167C1.42501 0.5 0.674172 1.25 0.674172 2.16667L0.666672 12.1658C0.666672 13.0867 1.41251 13.8333 2.33334 13.8333H3.58251C3.81251 13.8333 3.99917 14.02 3.99917 14.25V15.9883C3.99917 16.7308 4.89667 17.1025 5.42167 16.5775L7.92167 14.0775C8.07834 13.9208 8.29001 13.8333 8.51084 13.8333H15.6658C16.5825 13.8333 17.3325 13.0833 17.3325 12.1667V2.16667C17.3325 1.25 16.5825 0.5 15.6658 0.5ZM12.2525 10.5C11.8425 10.5 11.5167 10.1975 11.4292 9.7975C11.06 8.1225 9.37917 8.005 9.00001 8V9.66667C9.00001 10.0033 8.79751 10.3075 8.48584 10.4367C8.38251 10.4792 8.27417 10.5 8.16667 10.5C7.95001 10.5 7.73667 10.415 7.57751 10.2558L5.07751 7.75583C4.75167 7.43 4.75167 6.90333 5.07751 6.5775L7.57751 4.0775C7.81584 3.83917 8.17334 3.76833 8.48584 3.89667C8.79751 4.02583 9.00001 4.32917 9.00001 4.66667V6.33333C10.2792 6.33333 12.57 7.01917 13.0692 9.4775C13.1758 10.0025 12.7875 10.5 12.2525 10.5Z" fill="#191919" fill-opacity="0.35"/>
</svg>
