<svg width="18" height="17" viewBox="0 0 18 17" fill="none" xmlns="http://www.w3.org/2000/svg">
<path d="M8.73145 0.818037C8.37969 0.850225 8.0665 1.10659 7.98275 1.47722L7.52051 3.51498L5.26139 6.02474C4.98556 6.33058 4.83333 6.72798 4.83333 7.13965V14.8333C4.83333 15.7542 5.57917 16.5 6.5 16.5H13.1927C13.8102 16.5 14.3693 16.1364 14.6201 15.5723L17.1217 9.94239C17.2609 9.63072 17.3333 9.29284 17.3333 8.95117V8.16667C17.3333 7.25 16.5833 6.5 15.6667 6.5H9.83333C9.83333 6.5 10.6667 4.5244 10.6667 3.05274C10.6667 1.70857 9.80202 1.12028 9.08952 0.86361C8.97056 0.820485 8.8487 0.807308 8.73145 0.818037ZM1.91667 6.5C1.22667 6.5 0.666667 7.06 0.666667 7.75V15.25C0.666667 15.94 1.22667 16.5 1.91667 16.5C2.60667 16.5 3.16667 15.94 3.16667 15.25V7.75C3.16667 7.06 2.60667 6.5 1.91667 6.5Z" fill="#191919" fill-opacity="0.35"/>
</svg>
