<svg width="19" height="18" viewBox="0 0 19 18" fill="none" xmlns="http://www.w3.org/2000/svg">
<path d="M1 8.45461e-06C0.734784 8.45461e-06 0.48043 0.105365 0.292893 0.292902C0.105357 0.480438 0 0.734792 0 1.00001C0 1.26522 0.105357 1.51958 0.292893 1.70712C0.48043 1.89465 0.734784 2.00001 1 2.00001C1.26522 2.00001 1.51957 1.89465 1.70711 1.70712C1.89464 1.51958 2 1.26522 2 1.00001C2 0.734792 1.89464 0.480438 1.70711 0.292902C1.51957 0.105365 1.26522 8.45461e-06 1 8.45461e-06ZM5 8.45461e-06C4.86749 -0.00186559 4.73593 0.0226157 4.61296 0.0720295C4.48999 0.121443 4.37807 0.194804 4.2837 0.287848C4.18933 0.380893 4.11439 0.491765 4.06324 0.614023C4.0121 0.73628 3.98576 0.867483 3.98576 1.00001C3.98576 1.13253 4.0121 1.26374 4.06324 1.38599C4.11439 1.50825 4.18933 1.61912 4.2837 1.71217C4.37807 1.80521 4.48999 1.87857 4.61296 1.92799C4.73593 1.9774 4.86749 2.00188 5 2.00001H17C17.1325 2.00188 17.2641 1.9774 17.387 1.92799C17.51 1.87857 17.6219 1.80521 17.7163 1.71217C17.8107 1.61912 17.8856 1.50825 17.9368 1.38599C17.9879 1.26374 18.0142 1.13253 18.0142 1.00001C18.0142 0.867483 17.9879 0.73628 17.9368 0.614023C17.8856 0.491765 17.8107 0.380893 17.7163 0.287848C17.6219 0.194804 17.51 0.121443 17.387 0.0720295C17.2641 0.0226157 17.1325 -0.00186559 17 8.45461e-06H5ZM1 4.00001C0.734784 4.00001 0.48043 4.10537 0.292893 4.2929C0.105357 4.48044 0 4.73479 0 5.00001C0 5.26522 0.105357 5.51958 0.292893 5.70712C0.48043 5.89465 0.734784 6.00001 1 6.00001C1.26522 6.00001 1.51957 5.89465 1.70711 5.70712C1.89464 5.51958 2 5.26522 2 5.00001C2 4.73479 1.89464 4.48044 1.70711 4.2929C1.51957 4.10537 1.26522 4.00001 1 4.00001ZM5 4.00001C4.86749 3.99813 4.73593 4.02262 4.61296 4.07203C4.48999 4.12144 4.37807 4.1948 4.2837 4.28785C4.18933 4.38089 4.11439 4.49177 4.06324 4.61402C4.0121 4.73628 3.98576 4.86748 3.98576 5.00001C3.98576 5.13253 4.0121 5.26374 4.06324 5.38599C4.11439 5.50825 4.18933 5.61912 4.2837 5.71217C4.37807 5.80521 4.48999 5.87857 4.61296 5.92799C4.73593 5.9774 4.86749 6.00188 5 6.00001H15C15.1325 6.00188 15.2641 5.9774 15.387 5.92799C15.51 5.87857 15.6219 5.80521 15.7163 5.71217C15.8107 5.61912 15.8856 5.50825 15.9368 5.38599C15.9879 5.26374 16.0142 5.13253 16.0142 5.00001C16.0142 4.86748 15.9879 4.73628 15.9368 4.61402C15.8856 4.49177 15.8107 4.38089 15.7163 4.28785C15.6219 4.1948 15.51 4.12144 15.387 4.07203C15.2641 4.02262 15.1325 3.99813 15 4.00001H5ZM1 8.00001C0.734784 8.00001 0.48043 8.10537 0.292893 8.2929C0.105357 8.48044 0 8.73479 0 9.00001C0 9.26523 0.105357 9.51958 0.292893 9.70712C0.48043 9.89465 0.734784 10 1 10C1.26522 10 1.51957 9.89465 1.70711 9.70712C1.89464 9.51958 2 9.26523 2 9.00001C2 8.73479 1.89464 8.48044 1.70711 8.2929C1.51957 8.10537 1.26522 8.00001 1 8.00001ZM5 8.00001C4.86749 7.99813 4.73593 8.02262 4.61296 8.07203C4.48999 8.12144 4.37807 8.1948 4.2837 8.28785C4.18933 8.38089 4.11439 8.49177 4.06324 8.61402C4.0121 8.73628 3.98576 8.86748 3.98576 9.00001C3.98576 9.13253 4.0121 9.26374 4.06324 9.38599C4.11439 9.50825 4.18933 9.61912 4.2837 9.71217C4.37807 9.80521 4.48999 9.87857 4.61296 9.92799C4.73593 9.9774 4.86749 10.0019 5 10H13C13.1325 10.0019 13.2641 9.9774 13.387 9.92799C13.51 9.87857 13.6219 9.80521 13.7163 9.71217C13.8107 9.61912 13.8856 9.50825 13.9368 9.38599C13.9879 9.26374 14.0142 9.13253 14.0142 9.00001C14.0142 8.86748 13.9879 8.73628 13.9368 8.61402C13.8856 8.49177 13.8107 8.38089 13.7163 8.28785C13.6219 8.1948 13.51 8.12144 13.387 8.07203C13.2641 8.02262 13.1325 7.99813 13 8.00001H5ZM1 12C0.734784 12 0.48043 12.1054 0.292893 12.2929C0.105357 12.4804 0 12.7348 0 13C0 13.2652 0.105357 13.5196 0.292893 13.7071C0.48043 13.8947 0.734784 14 1 14C1.26522 14 1.51957 13.8947 1.70711 13.7071C1.89464 13.5196 2 13.2652 2 13C2 12.7348 1.89464 12.4804 1.70711 12.2929C1.51957 12.1054 1.26522 12 1 12ZM5 12C4.86749 11.9981 4.73593 12.0226 4.61296 12.072C4.48999 12.1214 4.37807 12.1948 4.2837 12.2878C4.18933 12.3809 4.11439 12.4918 4.06324 12.614C4.0121 12.7363 3.98576 12.8675 3.98576 13C3.98576 13.1325 4.0121 13.2637 4.06324 13.386C4.11439 13.5083 4.18933 13.6191 4.2837 13.7122C4.37807 13.8052 4.48999 13.8786 4.61296 13.928C4.73593 13.9774 4.86749 14.0019 5 14H11C11.1325 14.0019 11.2641 13.9774 11.387 13.928C11.51 13.8786 11.6219 13.8052 11.7163 13.7122C11.8107 13.6191 11.8856 13.5083 11.9368 13.386C11.9879 13.2637 12.0142 13.1325 12.0142 13C12.0142 12.8675 11.9879 12.7363 11.9368 12.614C11.8856 12.4918 11.8107 12.3809 11.7163 12.2878C11.6219 12.1948 11.51 12.1214 11.387 12.072C11.2641 12.0226 11.1325 11.9981 11 12H5ZM1 16C0.734784 16 0.48043 16.1054 0.292893 16.2929C0.105357 16.4804 0 16.7348 0 17C0 17.2652 0.105357 17.5196 0.292893 17.7071C0.48043 17.8947 0.734784 18 1 18C1.26522 18 1.51957 17.8947 1.70711 17.7071C1.89464 17.5196 2 17.2652 2 17C2 16.7348 1.89464 16.4804 1.70711 16.2929C1.51957 16.1054 1.26522 16 1 16ZM5 16C4.86749 15.9981 4.73593 16.0226 4.61296 16.072C4.48999 16.1214 4.37807 16.1948 4.2837 16.2878C4.18933 16.3809 4.11439 16.4918 4.06324 16.614C4.0121 16.7363 3.98576 16.8675 3.98576 17C3.98576 17.1325 4.0121 17.2637 4.06324 17.386C4.11439 17.5083 4.18933 17.6191 4.2837 17.7122C4.37807 17.8052 4.48999 17.8786 4.61296 17.928C4.73593 17.9774 4.86749 18.0019 5 18H9C9.13251 18.0019 9.26407 17.9774 9.38704 17.928C9.51001 17.8786 9.62193 17.8052 9.7163 17.7122C9.81067 17.6191 9.88561 17.5083 9.93676 17.386C9.9879 17.2637 10.0142 17.1325 10.0142 17C10.0142 16.8675 9.9879 16.7363 9.93676 16.614C9.88561 16.4918 9.81067 16.3809 9.7163 16.2878C9.62193 16.1948 9.51001 16.1214 9.38704 16.072C9.26407 16.0226 9.13251 15.9981 9 16H5Z" fill="#0038FF"/>
</svg>
